<?xml version="1.0" encoding="utf-8"?>
<!-- Generator: Adobe Illustrator 21.1.0, SVG Export Plug-In . SVG Version: 6.00 Build 0)  -->
<svg version="1.1" id="Capa_1" xmlns="http://www.w3.org/2000/svg" xmlns:xlink="http://www.w3.org/1999/xlink" x="0px" y="0px"
	 viewBox="0 0 500 500" style="enable-background:new 0 0 500 500;" xml:space="preserve">
<style type="text/css">
	.st0{fill:#C23B19;}
	.st1{fill:#D58333;}
	.st2{fill:#C95A3A;}
	.st3{fill:#FFFFFF;}
	.st4{fill:#161514;}
</style>
<g>
	<path class="st0" d="M173.4,396.4h-1.7v-68.3c0-9.1-7.4-16.5-16.6-16.5c-9.1,0-16.5,7.4-16.5,16.5c0,0,0,81.4,0,82
		c0,7.6,6.1,13.7,13.7,13.7h21.1c7.6,0,13.7-6.1,13.7-13.7C187.1,402.6,181,396.4,173.4,396.4z"/>
	<path class="st0" d="M350.2,396.4h-1.7v-93.3c0-9.1-7.4-16.5-16.6-16.5c-9.1,0-16.6,7.4-16.6,16.5c0,0,0,106.4,0,107
		c0,7.6,6.1,13.7,13.7,13.7h21.1c7.6,0,13.7-6.1,13.7-13.7C363.8,402.6,357.7,396.4,350.2,396.4z"/>
	<g>
		<path class="st0" d="M141.4,246.5c-40.8-14-67.2-34.5-82.9-64.2c-5.6-10.6-9.6-25.3-11.7-42.7l-32.4,4.5
			c2.2,18.3,6.7,37.5,15.2,53.5c19.6,37,52.7,63.2,101.2,79.8c1.8,0.6,3.6,0.9,5.3,0.9c6.8,0,13.1-4.3,15.5-11
			C154.5,258.7,149.9,249.4,141.4,246.5z"/>
		<path class="st1" d="M45.1,110.1c0-9-7.3-16.4-16.4-16.4c-9,0-16.4,7.3-16.4,16.4c0,10.1,0.5,21.8,2,33.9l32.4-4.5
			C45.7,130.4,45.1,120.6,45.1,110.1z"/>
	</g>
	<path class="st2" d="M125,409.5h-1.7v-68.3c0-9.1-7.4-16.5-16.6-16.5c-9.1,0-16.6,7.4-16.6,16.5c0,0,0,81.4,0,82
		c0,7.6,6.1,13.7,13.7,13.7H125c7.6,0,13.7-6.1,13.7-13.7C138.7,415.7,132.5,409.5,125,409.5z"/>
	<path class="st2" d="M301.7,409.5H300v-68.3c0-9.1-7.4-16.5-16.6-16.5c-9.1,0-16.6,7.4-16.6,16.5c0,0,0,81.4,0,82
		c0,7.6,6.1,13.7,13.7,13.7h21.1c7.6,0,13.7-6.1,13.7-13.7C315.4,415.7,309.2,409.5,301.7,409.5z"/>
	<path class="st2" d="M392.1,303.6c0,38.1-30.9,44.1-69.1,44.1H137.6c-38.1,0-69.1-30.9-69.1-69.1v4c0-38.1,30.9-69.1,69.1-69.1
		h135.5c38.1,0,119,30.9,119,69.1V303.6z"/>
	<path class="st2" d="M161.6,331.2c0,25.7-20.8,46.5-46.5,46.5l0,0c-25.7,0-46.5-20.8-46.5-46.5v-49.3c0-25.7,20.8-33.3,46.5-33.3
		l0,0c25.7,0,46.5,20.8,46.5,46.5V331.2z"/>
	<g>
		<path class="st1" d="M462,213c-7.5,8.7-20.6,9.7-29.3,2.2l0,0c-8.7-7.5-9.7-20.6-2.2-29.3c0,0,47-40.4,55.7-33l0,0
			C494.8,160.5,462,213,462,213z"/>
		<path class="st1" d="M275.4,213.3c7.9,8.3,21,8.7,29.3,0.8l0,0c8.3-7.9,8.7-21,0.8-29.4c0,0-48.9-38.1-57.2-30.2l0,0
			C240,162.4,275.4,213.3,275.4,213.3z"/>
		<path class="st0" d="M462.5,259.5c0,28.5-23.1,51.5-51.5,51.5h-82.8c-28.5,0-51.5-23.1-51.5-51.5v-29.6
			c0-28.5,23.1-51.5,51.5-51.5h82.8c28.5,0,51.5,23.1,51.5,51.5V259.5z"/>
		<g>
			<path class="st3" d="M349.8,215.3c0.1,10.1-8,18.5-18.2,18.6c-10.1,0.1-18.4-8-18.5-18.2c-0.1-10.1,8-18.4,18.2-18.6
				C341.4,197,349.7,205.2,349.8,215.3z"/>
			<path class="st4" d="M337.4,215.5c0,3.3-2.7,6-6,6c-3.3,0-6-2.7-6-6c0-3.3,2.7-6,6-6C334.7,209.5,337.4,212.2,337.4,215.5z"/>
			<path class="st3" d="M426,215.3c0.1,10.1-8,18.5-18.2,18.6c-10.1,0.1-18.5-8-18.5-18.2c-0.1-10.1,8-18.4,18.2-18.6
				C417.5,197,425.8,205.2,426,215.3z"/>
			<path class="st4" d="M413.6,215.5c0,3.3-2.7,6-6,6c-3.3,0-6-2.7-6-6c0-3.3,2.7-6,6-6C410.9,209.5,413.6,212.2,413.6,215.5z"/>
		</g>
		<path class="st4" d="M391,240.9c0,7.2-5.9,13.1-13.1,13.1l-9,13.8l-7.9-13.8c-7.2,0-13.1-5.9-13.1-13.1l0,0
			c0-7.2,5.9-13.1,13.1-13.1h16.9C385.2,227.8,391,233.7,391,240.9L391,240.9z"/>
		<g>
			<circle class="st3" cx="345.5" cy="267.7" r="27.3"/>
			<path class="st3" d="M420.8,267.7c0,15.1-12.2,27.3-27.3,27.3c-15.1,0-27.3-12.2-27.3-27.3c0-15.1,12.2-27.3,27.3-27.3
				C408.6,240.4,420.8,252.6,420.8,267.7z"/>
		</g>
	</g>
	<path class="st0" d="M226.2,252.2c0,9-7.3,16.4-16.4,16.4h-58.5c-9,0-16.4-7.3-16.4-16.4l0,0c0-9,7.3-16.4,16.4-16.4h58.5
		C218.9,235.8,226.2,243.2,226.2,252.2L226.2,252.2z"/>
	<path class="st0" d="M145.1,295.2c0,6.2-5,11.2-11.2,11.2h-19.7c-6.2,0-11.2-5-11.2-11.2l0,0c0-6.2,5-11.2,11.2-11.2h19.7
		C140.1,284,145.1,289,145.1,295.2L145.1,295.2z"/>
	<path class="st0" d="M239,302.8c0,8.3-6.7,15-15,15h-24.7c-8.3,0-15-6.7-15-15l0,0c0-8.3,6.7-15,15-15H224
		C232.3,287.8,239,294.5,239,302.8L239,302.8z"/>
</g>
</svg>
