<?xml version="1.0" encoding="utf-8"?>
<!-- Generator: Adobe Illustrator 21.1.0, SVG Export Plug-In . SVG Version: 6.00 Build 0)  -->
<svg version="1.1" id="Capa_1" xmlns="http://www.w3.org/2000/svg" xmlns:xlink="http://www.w3.org/1999/xlink" x="0px" y="0px"
	 viewBox="0 0 500 500" style="enable-background:new 0 0 500 500;" xml:space="preserve">
<style type="text/css">
	.st0{fill:#E1D2CF;}
	.st1{fill:#282828;}
	.st2{opacity:0.5;fill:#8B7C83;}
	.st3{fill:#F0E1DD;}
	.st4{fill:#E0ACB1;}
	.st5{opacity:0.3;fill:#CC6C35;}
	.st6{fill:#333333;}
	.st7{fill:#8B7C83;}
	.st8{fill:#BE9B68;}
	.st9{fill:#C3754B;}
	.st10{fill:#FFFFFF;}
	.st11{fill:#E2AF7B;}
	.st12{fill:#762E1C;}
	.st13{fill:#592617;}
</style>
<g>
	<g>
		<path class="st0" d="M354.4,265.8c0-8.1-6.6-14.7-14.7-14.7c-8.1,0-14.7,6.6-14.7,14.7l0,139.2h29.4L354.4,265.8z"/>
		<g>
			<path class="st1" d="M333.3,422c2.1-2.1,3.8-8,6.4-8c2.9,0,3.3,5.7,5.6,8c4.1,4.1,9.1,0.6,9.1-4.6l0-12.4H325v12.4
				C325,422.9,328.8,426.3,333.3,422z"/>
		</g>
	</g>
	<g>
		<path class="st0" d="M150.3,265.8c0-8.1-6.6-14.7-14.7-14.7c-8.1,0-14.7,6.6-14.7,14.7l0,139.2h29.4L150.3,265.8z"/>
		<g>
			<path class="st1" d="M129.1,422c2.1-2.1,3.8-8,6.4-8c2.9,0,3.3,5.7,5.6,8c4,4.1,9.1,0.6,9.1-4.6V405h-29.4l0,12.4
				C120.9,422.9,124.7,426.3,129.1,422z"/>
		</g>
		<path class="st2" d="M150.3,288.9c-1.8-0.2-3.5-0.3-5.3-0.3c-1.7,0-3.5,0.1-5.3,0.3l-8.5,1c-3.6,0.4-7,1.3-10.3,2.5v99.9
			c0.4,0,0.8,0.1,1.2,0.1c0.5,0,0.9,0,1.4-0.1c6.3-0.7,10.9-6.5,10.1-12.8l-0.1-1.2c0.3,0,0.6,0,0.9,0l0.6,5.4
			c0.7,5.8,5.6,10.2,11.5,10.2c0.5,0,0.9,0,1.4-0.1c0.9-0.1,1.7-0.3,2.5-0.6L150.3,288.9z"/>
	</g>
	<g>
		<path class="st3" d="M17.8,308.7l0-1.4l0-83.8c0-22,17.9-40,40-40c22,0,40,17.9,40,40h-8.7c0-17.3-14-31.3-31.3-31.3
			c-17.3,0-31.3,14-31.3,31.3l0,85L17.8,308.7z"/>
	</g>
	<g>
		<path class="st4" d="M184,328.3c2.6,21.6-12.9,41.2-34.5,43.8l-8.5,1c-21.6,2.6-41.2-12.9-43.8-34.5l0,0
			c-2.6-21.6,12.9-41.2,34.5-43.8l8.5-1C161.9,291.2,181.5,306.7,184,328.3L184,328.3z"/>
		<path class="st4" d="M153,381.5c0.4,3.6-2.2,6.9-5.8,7.4l0,0c-3.6,0.4-6.9-2.2-7.4-5.8l-1.7-14.7c-0.4-3.6,2.2-6.9,5.8-7.4l0,0
			c3.6-0.4,6.9,2.2,7.4,5.8L153,381.5z"/>
		<path class="st4" d="M176.1,374.4c0.4,3.6-2.2,6.9-5.8,7.4l0,0c-3.6,0.4-6.9-2.2-7.4-5.8l-1.7-14.7c-0.4-3.6,2.2-6.9,5.8-7.4l0,0
			c3.6-0.4,6.9,2.2,7.4,5.8L176.1,374.4z"/>
		<path class="st4" d="M128.7,380c0.4,3.6-2.2,6.9-5.8,7.4l0,0c-3.6,0.4-6.9-2.2-7.4-5.8l-1.7-14.7c-0.4-3.6,2.2-6.9,5.8-7.4l0,0
			c3.6-0.4,6.9,2.2,7.4,5.8L128.7,380z"/>
		<path class="st5" d="M137.3,342c24.2,0,43.1,0,46,0c1-4.4,1.3-8.9,0.8-13.6c-1.4-11.6-7.7-21.5-16.6-27.7l-50.3-1.1
			c-13.6,7.5-21.9,22.7-20,39.1c1.3,10.6,6.6,19.6,14.2,25.9c0-0.1,0-0.2,0-0.3C111.4,353.4,111,342,137.3,342z"/>
	</g>
	<path class="st3" d="M42.4,260.5c0,41,27.5,74.3,61.4,74.3l214.4,0c33.9,0,61.4-33.3,61.4-74.3l0-29.1c0-41-27.5-74.3-61.4-74.3
		l-214.4,0c-33.9,0-61.4,33.3-61.4,74.3L42.4,260.5z"/>
	<path class="st0" d="M335.6,190.6v46.2c0,24.7,17,45.4,40,51.1c2.5-7.6,3.9-15.9,3.9-24.6l0-26.1c0-24.9-11.3-46.6-28-58.1
		C341.7,188.7,335.6,175.9,335.6,190.6z"/>
	<path class="st0" d="M379.5,231.4c0-10.6-1.9-20.7-5.2-29.9c0.1,1.9,0.2,3.8,0.2,5.7l0,28.2c0,39.8-26.6,83.5-59.5,83.5l-208.3,0
		c-32.8,0-59.5-43.7-59.5-83.5l0-28.2c0-1.9,0.1-3.8,0.2-5.7c-3.3,9.1-5.2,19.2-5.2,29.9l0,29.1c0,41,27.5,74.3,61.4,74.3h214.4
		c33.9,0,61.4-33.3,61.4-74.3L379.5,231.4z"/>
	<g>
		<path class="st3" d="M315.1,268.9c0-8.1-6.6-14.7-14.7-14.7c-8.1,0-14.7,6.6-14.7,14.7l0,139.2h29.4L315.1,268.9z"/>
		<g>
			<path class="st6" d="M294,425.1c2.1-2.1,3.8-8,6.4-8c2.9,0,3.3,5.7,5.6,8c4.1,4.1,9.1,0.6,9.1-4.6v-12.4h-29.4v12.4
				C285.7,426,289.6,429.4,294,425.1z"/>
		</g>
	</g>
	<g>
		<path class="st3" d="M108.1,268.9c0-8.1-6.6-14.7-14.7-14.7c-8.1,0-14.7,6.6-14.7,14.7l0,139.2h29.4L108.1,268.9z"/>
		<g>
			<path class="st6" d="M87,425.1c2.1-2.1,3.8-8,6.4-8c2.9,0,3.3,5.7,5.6,8c4,4.1,9.1,0.6,9.1-4.6v-12.4H78.7v12.4
				C78.7,426,82.5,429.4,87,425.1z"/>
		</g>
	</g>
	<path class="st7" d="M273.8,237c0,14.5-11.7,26.2-26.2,26.2l-65.1,0c-14.5,0-26.2-11.7-26.2-26.2l0,0c0-14.5,11.7-26.2,26.2-26.2
		l65.1,0C262,210.8,273.8,222.5,273.8,237L273.8,237z"/>
	<g>
		<path class="st8" d="M403.1,145.2c23-3.3,53.6,4.4,53.6-30.6c0,0,16.4,33.9,2.2,41.6c-14.2,7.7-36.1,8.8-36.1,8.8L403.1,145.2z"/>
		<path class="st8" d="M371.2,145.2c-23-3.3-53.6,4.4-53.6-30.6c0,0-16.4,33.9-2.2,41.6c14.2,7.7,36.1,8.8,36.1,8.8L371.2,145.2z"/>
		<rect x="371.3" y="218.2" class="st9" width="36.1" height="73.3"/>
		<path class="st7" d="M426.4,167.7c-4.1,8.4-1.4,21,7.8,22.6c13.7,2.4,62.9-7.1,54.5-11.2l-39.7-19.3
			C440.7,155.7,430.5,159.2,426.4,167.7L426.4,167.7z"/>
		<path class="st7" d="M352.6,170.9c4.1,8.4,1.4,21-7.8,22.6c-13.7,2.4-62.9-7.1-54.5-11.2l39.7-19.3
			C338.4,159,348.5,162.5,352.6,170.9L352.6,170.9z"/>
		<path class="st3" d="M435.6,204c0,25.6-20.7,46.3-46.3,46.3l0,0c-25.6,0-46.3-20.7-46.3-46.3l0-17.6c0-25.6,20.7-46.3,46.3-46.3
			l0,0c25.6,0,46.3,20.7,46.3,46.3V204z"/>
		<path class="st7" d="M428.4,196c0,10.8-6.4,19.5-14.3,19.5l-23.5,0c-7.9,0-14.3-8.7-14.3-19.5l0,0c0-10.8,6.4-19.5,14.3-19.5
			l23.5,0C422.1,176.5,428.4,185.2,428.4,196L428.4,196z"/>
		<path class="st7" d="M190.1,265.9c0,8.7-6.6,15.7-14.7,15.7l-24.2,0c-8.1,0-14.7-7.1-14.7-15.7l0,0c0-8.7,6.6-15.7,14.7-15.7
			l24.2,0C183.5,250.2,190.1,257.2,190.1,265.9L190.1,265.9z"/>
		<path class="st7" d="M345.2,283.6c0,9.4-7.1,16.9-15.8,16.9l-26.1,0c-8.8,0-15.8-7.6-15.8-16.9l0,0c0-9.4,7.1-16.9,15.8-16.9
			l26.1,0C338.1,266.6,345.2,274.2,345.2,283.6L345.2,283.6z"/>
		<path class="st7" d="M105.3,239.5c0,5.8-4.4,10.5-9.8,10.5l-16.1,0c-5.4,0-9.8-4.7-9.8-10.5l0,0c0-5.8,4.4-10.5,9.8-10.5l16.1,0
			C100.9,229,105.3,233.7,105.3,239.5L105.3,239.5z"/>
		<path class="st10" d="M175.3-508.2c0,4.5-3.4,8.2-7.7,8.2l-12.6,0c-4.2,0-7.7-3.7-7.7-8.2l0,0c0-4.5,3.4-8.2,7.7-8.2l12.6,0
			C171.9-516.4,175.3-512.7,175.3-508.2L175.3-508.2z"/>
		<path class="st11" d="M439.2,267.6c0-17.4-14.1-31.6-31.6-31.6h-37.7c-17.4,0-31.6,14.1-31.6,31.6l0,0c0,17.4,14.1,31.6,31.6,31.6
			h37.7C425,299.1,439.2,285,439.2,267.6L439.2,267.6z"/>
		<path class="st12" d="M384.3,280.3c0,3.7-3,6.6-6.6,6.6l0,0c-3.7,0-6.6-3-6.6-6.6v-2.5c0-3.7,3-6.6,6.6-6.6l0,0
			c3.7,0,6.6,3,6.6,6.6V280.3z"/>
		<path class="st12" d="M407.2,280.3c0,3.7-3,6.6-6.6,6.6l0,0c-3.6,0-6.6-3-6.6-6.6v-2.5c0-3.7,3-6.6,6.6-6.6l0,0
			c3.7,0,6.6,3,6.6,6.6V280.3z"/>
		<path class="st3" d="M414.7,230.3c0,7.8-6.4,14.1-14.3,14.1l-23.5,0c-7.9,0-14.3-6.3-14.3-14.1l0,0c0-7.8,6.4-14.1,14.3-14.1
			l23.5,0C408.4,216.2,414.7,222.5,414.7,230.3L414.7,230.3z"/>
	</g>
	<path class="st7" d="M347.3,392.9l7.1,0v-27.4l-7.1,0c-7.5,0-13.7,6.1-13.7,13.7C333.7,386.8,339.8,392.9,347.3,392.9z"/>
	<path class="st7" d="M78.7,394.4h2.4c6.8,0,12.3-5.5,12.3-12.3c0-6.8-5.5-12.3-12.3-12.3h-2.4V394.4z"/>
	<path class="st7" d="M108.1,328.8h-2.4c-6.8,0-12.3,5.5-12.3,12.3c0,6.8,5.5,12.3,12.3,12.3h2.4L108.1,328.8z"/>
	<path class="st7" d="M293,350.2h-7.3v32.7h7.3c9,0,16.4-7.3,16.4-16.4C309.4,357.5,302.1,350.2,293,350.2z"/>
	<path class="st7" d="M34.9,349.9c0.8-6.3-0.9-42.3-1.3-46.2c-0.6-5.5-4.8-10.1-10.8-10.1c-6,0-10.1,4.5-10.8,10.1
		c-0.5,3.9-2.4,39.9-1.6,46.2H34.9z"/>
</g>
<path class="st7" d="M43.7,216.1h67.2c2.2,0,4.3-0.4,6.3-1.1c4.3-0.5,8.5-1.3,12.7-2.3c21.5-5.6,48.8-31.3,37.7-55.5h-63.7
	C74.2,157.1,49.5,182.4,43.7,216.1z"/>
<path class="st7" d="M88.5,256.6c0-9.9-7.5-17.9-16.8-17.9l-27.6,0c-0.6,0-1.2,0-1.8,0.1l0,21.7c0,4.8,0.4,9.5,1.1,14
	c0.2,0,0.5,0,0.7,0l27.6,0C81,274.5,88.5,266.5,88.5,256.6z"/>
<path class="st7" d="M196.5,177.9l26.1,0c8.8,0,15.8-7.6,15.8-16.9c0-1.3-0.2-2.6-0.4-3.9h-56.9c-0.3,1.2-0.4,2.5-0.4,3.8
	C180.7,170.3,187.8,177.9,196.5,177.9z"/>
<path class="st5" d="M424.6,240.9c5.1,5.2,8.2,12.2,8.2,20c0,15.8-12.8,28.6-28.6,28.6H370c-15.8,0-28.6-12.8-28.6-28.6
	c0-3.9,0.8-7.6,2.2-10.9c-3.3,5-5.3,11-5.3,17.5c0,17.4,14.1,31.6,31.6,31.6h37.7c17.4,0,31.6-14.1,31.6-31.6
	C439.2,256.4,433.3,246.6,424.6,240.9z"/>
<path class="st10" d="M383.4,205.8c0.1,7.6-6,13.9-13.7,14c-7.6,0.1-13.9-6-14-13.7c-0.1-7.6,6-13.9,13.7-14
	C377.1,192,383.3,198.2,383.4,205.8z"/>
<path class="st13" d="M374.1,206c0,2.5-2,4.5-4.5,4.5c-2.5,0-4.5-2-4.5-4.5c0-2.5,2-4.5,4.5-4.5C372.1,201.4,374.1,203.5,374.1,206z
	"/>
<path class="st10" d="M421.6,205.8c0.1,7.6-6,13.9-13.7,14c-7.6,0.1-13.9-6-14-13.7c-0.1-7.6,6-13.9,13.7-14
	C415.3,192,421.5,198.2,421.6,205.8z"/>
<path class="st13" d="M412.3,206c0,2.5-2,4.5-4.5,4.5c-2.5,0-4.5-2-4.5-4.5c0-2.5,2-4.5,4.5-4.5C410.3,201.4,412.3,203.5,412.3,206z
	"/>
</svg>
