<?xml version="1.0" encoding="utf-8"?>
<!-- Generator: Adobe Illustrator 21.1.0, SVG Export Plug-In . SVG Version: 6.00 Build 0)  -->
<svg version="1.1" id="Capa_1" xmlns="http://www.w3.org/2000/svg" xmlns:xlink="http://www.w3.org/1999/xlink" x="0px" y="0px"
	 viewBox="0 0 500 500" style="enable-background:new 0 0 500 500;" xml:space="preserve">
<style type="text/css">
	.st0{fill:#6E6A67;}
	.st1{fill:#5B5B5B;}
	.st2{fill:#333333;}
	.st3{fill:#737272;}
	.st4{fill:#C4402E;}
	.st5{fill:#C3AF9B;}
	.st6{fill:#FFFFFF;}
	.st7{fill:#161514;}
</style>
<g>
	<path class="st0" d="M138.1,391.3h-1.6l0-66c0-8.8-7.2-16-16-16c-8.8,0-16,7.2-16,16c0,0,0,78.7,0,79.2c0,7.3,5.9,13.2,13.2,13.2
		h20.4c7.3,0,13.2-5.9,13.2-13.2C151.3,397.2,145.4,391.3,138.1,391.3z"/>
	<path class="st0" d="M308.8,391.3h-1.6l0-66c0-8.8-7.2-16-16-16c-8.8,0-16,7.2-16,16c0,0,0,78.7,0,79.2c0,7.3,5.9,13.2,13.2,13.2
		l20.4,0c7.3,0,13.2-5.9,13.2-13.2C322,397.2,316.1,391.3,308.8,391.3z"/>
	<path class="st1" d="M179.2,382h-1.6l0-66c0-8.8-7.2-16-16-16c-8.8,0-16,7.2-16,16c0,0,0,78.7,0,79.2c0,7.3,5.9,13.2,13.2,13.2
		l20.4,0c7.3,0,13.2-5.9,13.2-13.2C192.4,388,186.5,382,179.2,382z"/>
	<path class="st1" d="M349.9,382l-1.6,0l0-115.4c0-8.8-7.2-16-16-16c-8.8,0-16,7.2-16,16c0,0,0,128.1,0,128.6
		c0,7.3,5.9,13.2,13.2,13.2h20.4c7.3,0,13.2-5.9,13.2-13.2C363.1,388,357.2,382,349.9,382z"/>
	<path class="st1" d="M73.4,203.1c-11.7-26.1,0-56.7,26.1-68.4c12.4-5.6,25.9-5.8,37.8-1.7c-19.8-20.9-51.3-28.1-79.1-15.7
		c-35.2,15.7-51,57-35.2,92.2c15.7,35.2,57.1,51,92.3,35.2c7.4-3.3,13.9-7.8,19.5-13.1C110.4,238.6,84.1,226.9,73.4,203.1z"/>
	<path class="st0" d="M348,264.9c0,36.8-29.9,66.7-66.7,66.7l-130.9,0c-36.8,0-66.7-29.9-66.7-66.7v3.9c0-36.8,29.9-66.7,66.7-66.7
		l130.9,0c36.8,0,66.7,29.9,66.7,66.7V264.9z"/>
	<path class="st0" d="M157.4,323.6c0,20.4-16.5,36.9-36.9,36.9l0,0c-20.4,0-36.9-16.5-36.9-36.9l0-54.9c0-20.4,16.5-10.6,36.9-10.6
		l0,0c20.4,0,36.9,16.5,36.9,36.9L157.4,323.6z"/>
	<path class="st0" d="M328.1,323.6c0,20.4-16.5,36.9-36.9,36.9l0,0c-20.4,0-36.9-16.5-36.9-36.9V295c0-20.4,16.5-36.9,36.9-36.9l0,0
		c20.4,0,36.9,16.5,36.9,36.9V323.6z"/>
	
		<rect x="249.8" y="162.5" transform="matrix(0.6712 -0.7412 0.7412 0.6712 -43.5335 297.9135)" class="st0" width="128.7" height="71.1"/>
	<g>
		<path class="st2" d="M334.7,151.2c15-10,19.1-30.2,9.2-45.2l0,0c-10-15-30.2-19.1-45.2-9.2c0,0-72.3,65.4-62.3,80.4l0,0
			C246.3,192.2,334.7,151.2,334.7,151.2z"/>
		<path class="st2" d="M391.4,151.2c-15-10-19.1-30.2-9.2-45.2l0,0c10-15,30.2-19.1,45.3-9.2c0,0,72.3,65.4,62.3,80.4l0,0
			C479.8,192.2,391.4,151.2,391.4,151.2z"/>
		<path class="st3" d="M419.4,228.6c0,29.8-24.1,36.1-53.9,36.1l0,0c-29.7,0-53.9-6.3-53.9-36.1l0-91c0-29.7,24.1-53.9,53.9-53.9
			l0,0c29.7,0,53.9,24.1,53.9,53.9L419.4,228.6z"/>
		<path class="st4" d="M368,279.9c0,11-8.9,20-20,20l0,0c-11,0-20-8.9-20-20v-21.6c0-11,8.9-20,20-20l0,0c11,0,20,8.9,20,20V279.9z"
			/>
		<g>
			<path class="st5" d="M329.8,277.9c-9.7,0-18.9-3.3-25.8-9.3c-7.2-6.2-11.1-14.5-11.1-23.3c0-18,16.6-32.6,36.9-32.6h7.7
				c11.2,0,21.5,4.4,28.4,11.9c6.9-7.4,17.2-11.9,28.4-11.9l7.7,0c20.4,0,36.9,14.6,36.9,32.6c0,18-16.6,32.6-36.9,32.6H329.8z"/>
			<path class="st5" d="M401.9,217.8c17.6,0,31.8,12.3,31.8,27.5c0,15.2-14.2,27.5-31.8,27.5h-7.7c-12.5,0-44.3,0-56.7,0h-7.7
				c0,0,0,0,0,0c-17.6,0-31.8-12.3-31.8-27.5c0-15.2,14.2-27.5,31.8-27.5h7.7c12.5,0,23.2,6.3,28.4,15.3c5.2-9,15.9-15.3,28.4-15.3
				L401.9,217.8L401.9,217.8z M401.9,207.6L401.9,207.6l-7.7,0c-10.7,0-20.8,3.6-28.4,10c-7.6-6.3-17.7-10-28.4-10h-7.7
				c-23.2,0-42.1,16.9-42.1,37.7c0,20.8,18.9,37.7,42,37.7h7.7h56.7h7.7c23.2,0,42.1-16.9,42.1-37.7
				C444,224.5,425.1,207.6,401.9,207.6L401.9,207.6z"/>
		</g>
		<path class="st2" d="M395.7,218.2c0,10.4-8.4,18.7-18.7,18.7l-24.1,0c-10.3,0-18.7-8.4-18.7-18.7l0,0c0-10.3,8.4-18.7,18.7-18.7
			l24.1,0C387.4,199.5,395.7,207.9,395.7,218.2L395.7,218.2z"/>
		<path class="st6" d="M355.7,169.5c0.2,14.2-11.2,25.8-25.4,26c-14.2,0.2-25.8-11.2-25.9-25.4c-0.2-14.2,11.2-25.8,25.4-26
			C344,144,355.6,155.4,355.7,169.5z"/>
		<path class="st7" d="M338.4,169.8c0,4.6-3.8,8.4-8.4,8.4c-4.7,0-8.4-3.8-8.4-8.4c0-4.6,3.8-8.4,8.4-8.4
			C334.7,161.4,338.4,165.2,338.4,169.8z"/>
		<path class="st6" d="M426.7,169.5c0.2,14.2-11.2,25.8-25.4,26c-14.2,0.2-25.8-11.2-25.9-25.4c-0.2-14.2,11.2-25.8,25.4-26
			C414.9,144,426.5,155.4,426.7,169.5z"/>
		<path class="st7" d="M409.4,169.8c0,4.6-3.7,8.4-8.4,8.4c-4.7,0-8.4-3.8-8.4-8.4c0-4.6,3.8-8.4,8.4-8.4
			C405.6,161.4,409.4,165.2,409.4,169.8z"/>
	</g>
</g>
</svg>
