<?xml version="1.0" encoding="utf-8"?>
<!-- Generator: Adobe Illustrator 21.1.0, SVG Export Plug-In . SVG Version: 6.00 Build 0)  -->
<svg version="1.1" id="Capa_1" xmlns="http://www.w3.org/2000/svg" xmlns:xlink="http://www.w3.org/1999/xlink" x="0px" y="0px"
	 viewBox="0 0 500 500" style="enable-background:new 0 0 500 500;" xml:space="preserve">
<style type="text/css">
	.st0{fill:#D37D38;}
	.st1{fill:#E0A64C;}
	.st2{fill:#D1D2D4;}
	.st3{fill:#A6A8AC;}
	.st4{fill:#FFFFFF;}
	.st5{fill:#414041;}
</style>
<g>
	<g>
		<path class="st0" d="M322.5,90.7c-2.3-6.9,1.4-14.3,8.3-16.6c0,0,53.9,9.7,47.1,12L339,99C332.2,101.3,324.7,97.6,322.5,90.7
			L322.5,90.7z"/>
		<path class="st1" d="M205,433.9c0,4.1-3.3,7.3-7.3,7.3l0,0c-4.1,0-7.4-3.3-7.4-7.3v-58.8c0-4.1,3.3-7.3,7.4-7.3l0,0
			c4.1,0,7.3,3.3,7.3,7.3V433.9z"/>
		<path class="st0" d="M251.4,441.6c0,4.8-3.9,8.6-8.6,8.6h-63.7c-4.8,0-8.6-3.9-8.6-8.6l0,0c0-4.8,3.9-8.6,8.6-8.6h63.7
			C247.5,433,251.4,436.8,251.4,441.6L251.4,441.6z"/>
		<path class="st1" d="M323.7,73.2c-2.3,6.9,1.3,14.3,8.2,16.6c0,0,54-9.4,47.2-11.7L340.3,65C333.4,62.6,326,66.3,323.7,73.2
			L323.7,73.2z"/>
		<path class="st2" d="M270.6,311.9c8.7,41.2-17.7,81.7-59,90.4C130.5,419.4-22,295.5,19.3,286.8l160.9-33.8
			C221.4,244.3,261.9,270.7,270.6,311.9L270.6,311.9z"/>
		<path class="st2" d="M342,79.8c0,14.5-11.7,26.2-26.2,26.2h-21.1c-14.5,0-26.2-11.7-26.2-26.2l0,0c0-14.5,11.7-26.2,26.2-26.2
			h21.1C330.3,53.6,342,65.3,342,79.8L342,79.8z"/>
		<polygon class="st2" points="269,74.8 228.9,248.1 278.5,296.1 310.7,106 		"/>
		<path class="st3" d="M278.5,299.7c0,28.5-23.1,51.7-51.7,51.7c-78.6,0-189.5-103.4-161-103.4h161
			C255.3,248.1,278.5,271.2,278.5,299.7L278.5,299.7z"/>
		<g>
			<path class="st4" d="M330.3,74.7c0.1,7.6-6,13.8-13.6,13.9c-7.6,0.1-13.8-6-13.9-13.6c-0.1-7.6,6-13.8,13.6-13.9
				C324,61,330.2,67.1,330.3,74.7z"/>
			<path class="st5" d="M321.1,74.8c0,2.5-2,4.5-4.5,4.5c-2.5,0-4.5-2-4.5-4.5c0-2.5,2-4.5,4.5-4.5
				C319.1,70.3,321.1,72.4,321.1,74.8z"/>
		</g>
		<path class="st2" d="M228.9,266.4v65.7c18.1,0,32.8-14.7,32.8-32.8C261.8,281.1,247.1,266.4,228.9,266.4z"/>
		<path class="st2" d="M220.8,289.3v19.8c-5.5,0-9.9-4.4-9.9-9.9C210.9,293.8,215.3,289.3,220.8,289.3z"/>
		<path class="st2" d="M220.8,266.3v19.8c-5.5,0-9.9-4.4-9.9-9.9C210.9,270.7,215.3,266.3,220.8,266.3z"/>
		<path class="st2" d="M220.8,312.7v19.8c-5.5,0-9.9-4.4-9.9-9.9C210.9,317.1,215.3,312.7,220.8,312.7z"/>
		<path class="st2" d="M202.2,285.3v-18.2H101C101,267.1,110.9,281.7,202.2,285.3z"/>
		<path class="st2" d="M202.2,308.8v-18.2h-71.1C131.1,290.6,138,305.3,202.2,308.8z"/>
		<path class="st2" d="M202.2,332.5v-18.2h-36.8C165.5,314.3,169,328.9,202.2,332.5z"/>
	</g>
	<g>
		<polygon class="st2" points="399.5,319.9 440.2,319.9 440.2,362.9 399.5,361 		"/>
		<path class="st1" d="M384.6,439.4c0,2.7-2.2,4.9-4.9,4.9l0,0c-2.7,0-4.9-2.2-4.9-4.9v-39.2c0-2.7,2.2-4.9,4.9-4.9l0,0
			c2.7,0,4.9,2.2,4.9,4.9V439.4z"/>
		<path class="st0" d="M403.1,444.5c0,3.2-2.6,5.7-5.8,5.7h-30.1c-3.2,0-5.7-2.6-5.7-5.7l0,0c0-3.2,2.6-5.7,5.7-5.7h30.1
			C400.5,438.7,403.1,441.3,403.1,444.5L403.1,444.5z"/>
		<path class="st2" d="M378.4,422.7c34.1,0,61.7-27.6,61.7-61.7H316.7C316.7,395.1,344.3,422.7,378.4,422.7z"/>
		<g>
			<path class="st0" d="M445.8,333.5c-2.3-6.9,1.4-14.3,8.3-16.6c0,0,39.2,9.7,32.3,12l-24,12.9
				C455.6,344.1,448.1,340.4,445.8,333.5L445.8,333.5z"/>
			<path class="st1" d="M447.1,316c-2.3,6.9,1.3,14.3,8.2,16.6c0,0,39.2-9.4,32.4-11.7l-23.9-13.1
				C456.8,305.5,449.4,309.1,447.1,316L447.1,316z"/>
			<path class="st2" d="M472.8,322.6c0,14.5-11.7,26.2-26.2,26.2h-21.1c-14.5,0-26.2-11.7-26.2-26.2l0,0c0-14.5,11.7-26.2,26.2-26.2
				h21.1C461.1,296.4,472.8,308.1,472.8,322.6L472.8,322.6z"/>
			<path class="st4" d="M461.1,317.5c0.1,7.6-6,13.8-13.6,13.9c-7.6,0.1-13.8-6-13.9-13.6c-0.1-7.6,6-13.8,13.6-13.9
				C454.8,303.8,461,309.9,461.1,317.5z"/>
			<circle class="st5" cx="447.3" cy="317.7" r="4.5"/>
		</g>
		<g>
			<path class="st3" d="M420.4,371c0,12.1-9.8,22-22,22c-33.4,0-80.6-43.9-68.4-43.9h68.4C410.5,349.1,420.4,358.9,420.4,371
				L420.4,371z"/>
			<path class="st2" d="M399.3,356.9v27.9c7.7,0,14-6.2,14-14C413.3,363.1,407,356.9,399.3,356.9z"/>
			<path class="st2" d="M395.9,366.6v8.4c-2.3,0-4.2-1.9-4.2-4.2C391.7,368.5,393.5,366.6,395.9,366.6z"/>
			<path class="st2" d="M395.9,356.8v8.4c-2.3,0-4.2-1.9-4.2-4.2C391.7,358.7,393.5,356.8,395.9,356.8z"/>
			<path class="st2" d="M395.9,376.5v8.4c-2.3,0-4.2-1.9-4.2-4.2S393.5,376.5,395.9,376.5z"/>
			<path class="st2" d="M388,364.9v-7.7h-43C344.9,357.1,349.1,363.4,388,364.9z"/>
			<path class="st2" d="M388,374.9v-7.7h-30.2C357.7,367.2,360.7,373.4,388,374.9z"/>
			<path class="st2" d="M388,385v-7.7h-15.6C372.3,377.2,373.9,383.4,388,385z"/>
		</g>
	</g>
</g>
</svg>
