<?xml version="1.0" encoding="utf-8"?>
<!-- Generator: Adobe Illustrator 21.1.0, SVG Export Plug-In . SVG Version: 6.00 Build 0)  -->
<svg version="1.1" id="Capa_1" xmlns="http://www.w3.org/2000/svg" xmlns:xlink="http://www.w3.org/1999/xlink" x="0px" y="0px"
	 viewBox="0 0 500 500" style="enable-background:new 0 0 500 500;" xml:space="preserve">
<style type="text/css">
	.st0{fill:#7C3C20;}
	.st1{fill:#9E5A37;}
	.st2{fill:#D78B33;}
	.st3{fill:#C22E2C;}
	.st4{fill:#644F44;}
	.st5{fill:#B77852;}
	.st6{fill:#FFFFFF;}
	.st7{fill:#7C562B;}
	.st8{fill:#E0A64C;}
	.st9{fill:#E6B55A;}
	.st10{fill:#414041;}
</style>
<g>
	<g>
		<path class="st0" d="M176.2,360.1c0,13.6-11,24.6-24.6,24.6l0,0c-13.6,0-24.6-11-24.6-24.6v-18.6c0-13.6,11-24.6,24.6-24.6l0,0
			c13.6,0,24.6,11,24.6,24.6V360.1z"/>
		<path class="st0" d="M158.4,410c0,3.8-3,6.8-6.8,6.8l0,0c-3.8,0-6.8-3-6.8-6.8v-38.4c0-3.8,3-6.8,6.8-6.8l0,0c3.8,0,6.8,3,6.8,6.8
			V410z"/>
		<path class="st1" d="M199.8,413.7c0,4.2-3.4,7.7-7.7,7.7h-63.8c-4.2,0-7.6-3.4-7.6-7.7l0,0c0-4.2,3.4-7.6,7.6-7.6h63.8
			C196.3,406,199.8,409.4,199.8,413.7L199.8,413.7z"/>
		<g>
			<path class="st1" d="M151.2,370c8.2,0,14.9-6.7,14.9-14.9h-29.7C136.3,363.3,142.9,370,151.2,370z"/>
			<path class="st1" d="M178.2,370c8.2,0,14.9-6.7,14.9-14.9h-29.7C163.3,363.3,170,370,178.2,370z"/>
			<path class="st1" d="M124.8,370c8.2,0,14.9-6.7,14.9-14.9h-29.7C109.9,363.3,116.6,370,124.8,370z"/>
		</g>
		<path class="st2" d="M322.2,112.4c10.3,0,18.7,8.4,18.7,18.7h-37.4C303.5,120.8,311.9,112.4,322.2,112.4z"/>
		<circle class="st3" cx="256.3" cy="84.7" r="23.3"/>
		<ellipse class="st3" cx="285.8" cy="84.7" rx="18.2" ry="18.2"/>
		<path class="st4" d="M273,300.2c0,31.2-25.3,56.5-56.6,56.5H102.6c-31.2,0-56.5-25.3-56.5-56.5v-37.8c0-31.2,25.3-56.5,56.5-56.5
			h113.8c31.2,0,56.6,25.3,56.6,56.5V300.2z"/>
		<path class="st5" d="M26.7,167.4c-28.4,28.4-28.4,74.5,0,102.9c28.4,28.4,74.5,28.4,102.9,0L26.7,167.4z"/>
		<path class="st5" d="M322.2,121.8c0,15-12.2,27.2-27.2,27.2h-31.4c-15,0-27.2-12.2-27.2-27.2l0,0c0-15,12.2-27.2,27.2-27.2H295
			C310.1,94.6,322.2,106.7,322.2,121.8L322.2,121.8z"/>
		<polygon class="st5" points="273,291.6 285.7,136.2 238.1,112.4 180.4,205.9 		"/>
		<path class="st1" d="M151.5,314.7c60.1,0,108.8-48.7,108.8-108.8H42.7C42.7,266,91.4,314.7,151.5,314.7z"/>
		<path class="st0" d="M151.5,291.6c47.3,0,85.7-38.4,85.7-85.7H65.8C65.8,253.2,104.1,291.6,151.5,291.6z"/>
		<path class="st1" d="M151.5,270.9c35.9,0,65-29.1,65-65h-130C86.5,241.8,115.6,270.9,151.5,270.9z"/>
		<path class="st0" d="M151.5,250.4c24.6,0,44.5-19.9,44.5-44.5H107C107,230.5,126.9,250.4,151.5,250.4z"/>
		<path class="st1" d="M255,190.8c8.2,0,14.9-6.7,14.9-14.9h-29.7C240.2,184.2,246.8,190.8,255,190.8z"/>
		<path class="st1" d="M228.7,190.8c8.2,0,14.9-6.7,14.9-14.9h-29.7C213.8,184.2,220.5,190.8,228.7,190.8z"/>
		<path class="st1" d="M262.9,165.8c8.2,0,14.9-6.7,14.9-14.9h-29.7C248.1,159.1,254.7,165.8,262.9,165.8z"/>
		<path class="st1" d="M236.6,165.8c8.2,0,14.9-6.7,14.9-14.9h-29.7C221.7,159.1,228.4,165.8,236.6,165.8z"/>
		<path class="st1" d="M251.4,141.5c8.2,0,14.9-6.7,14.9-14.9h-29.7C236.6,134.8,243.2,141.5,251.4,141.5z"/>
		<path class="st6" d="M305.1,115.6c0.1,7.1-5.6,12.9-12.7,12.9c-7.1,0.1-12.9-5.6-12.9-12.7c-0.1-7.1,5.6-12.9,12.7-12.9
			C299.3,102.8,305.1,108.5,305.1,115.6z"/>
		<circle class="st7" cx="292.3" cy="115.7" r="4.2"/>
	</g>
	<g>
		<path class="st0" d="M386.1,409.1c0,3-2.5,5.5-5.5,5.5l0,0c-3,0-5.5-2.5-5.5-5.5v-44.2c0-3,2.5-5.5,5.5-5.5l0,0
			c3,0,5.5,2.5,5.5,5.5V409.1z"/>
		<path class="st1" d="M407,414.8c0,3.6-2.9,6.5-6.5,6.5h-33.9c-3.6,0-6.5-2.9-6.5-6.5l0,0c0-3.6,2.9-6.5,6.5-6.5h33.9
			C404.1,408.4,407,411.3,407,414.8L407,414.8z"/>
		<path class="st8" d="M379.2,390.3c38.4,0,69.6-31.1,69.6-69.6H309.6C309.6,359.2,340.8,390.3,379.2,390.3z"/>
		<g>
			<path class="st2" d="M383.5,364.9c28.6,0,51.7-23.2,51.7-51.7H331.8C331.8,341.8,354.9,364.9,383.5,364.9z"/>
			<path class="st9" d="M383.5,344.7c17.4,0,31.5-14.1,31.5-31.5h-62.9C352.1,330.6,366.1,344.7,383.5,344.7z"/>
		</g>
		<path class="st2" d="M473.4,306.7c10.1,0,18.3,8.2,18.3,18.3H455C455,315,463.2,306.7,473.4,306.7z"/>
		<g>
			<path class="st8" d="M473.4,313.2c0,16-13,29-29,29h-9.7c-16,0-29-13-29-29l0,0c0-16,13-29,29-29h9.7
				C460.4,284.2,473.4,297.2,473.4,313.2L473.4,313.2z"/>
			<path class="st6" d="M460.4,307.6c0.1,8.4-6.6,15.3-15,15.4c-8.4,0.1-15.3-6.6-15.4-15c-0.1-8.4,6.6-15.3,15-15.4
				C453.5,292.5,460.4,299.2,460.4,307.6z"/>
			<circle class="st10" cx="445.2" cy="307.7" r="5"/>
		</g>
	</g>
</g>
</svg>
