<?xml version="1.0" encoding="utf-8"?>
<!-- Generator: Adobe Illustrator 21.1.0, SVG Export Plug-In . SVG Version: 6.00 Build 0)  -->
<svg version="1.1" id="Capa_1" xmlns="http://www.w3.org/2000/svg" xmlns:xlink="http://www.w3.org/1999/xlink" x="0px" y="0px"
	 viewBox="0 0 500 500" style="enable-background:new 0 0 500 500;" xml:space="preserve">
<style type="text/css">
	.st0{fill:#592617;}
	.st1{fill:#36130F;}
	.st2{fill:#A24A24;}
	.st3{fill:#903D1D;}
	.st4{fill:#BE5328;}
	.st5{fill:#CE915A;}
	.st6{opacity:0.4;}
	.st7{fill:#E8C3B1;}
	.st8{fill:#FFFFFF;}
</style>
<g>
	<path class="st0" d="M229.9,275.7c0,20.1-16.3,36.4-36.4,36.4l0,0c-20.1,0-36.4-16.3-36.4-36.4v-38.6c0-20.1,14.2-9.5,34.3-9.5
		l7.4-1c20.1,0,31.1-9.6,31.1,10.5V275.7z"/>
	<polygon class="st0" points="229.3,424.3 211.2,424.3 170.2,296.1 206.1,296.1 	"/>
	<path class="st1" d="M234.8,435.1V428c0-8-6.5-14.5-14.5-14.5c-8,0-14.5,6.5-14.5,14.5v7.2H234.8z"/>
	<circle class="st0" cx="203.9" cy="357.9" r="19.7"/>
	<path class="st0" d="M410.6,64.7c-16.2,0-30.6,8.2-39.1,20.6c0,0,0,0-0.1,0.1l-61.1,74c-13,15.2-11.2,38.1,4,51.1l58.3-69.7
		c8.7,11.6,22.5,19.1,38,19.1c26.3,0,47.6-21.3,47.6-47.6C458.1,86,436.8,64.7,410.6,64.7z"/>
	<path class="st0" d="M391,265.6c11.1,7.2,14.3,22.1,7.1,33.2l0,0c-7.2,11.1-22.1,14.3-33.2,7L343,291.7
		c-11.1-7.2-14.3-22.1-7.1-33.2l0,0c7.2-11.1,22.1-14.3,33.2-7L391,265.6z"/>
	
		<rect x="380.8" y="336.6" transform="matrix(0.5591 -0.8291 0.8291 0.5591 -102.4673 499.6248)" class="st0" width="75.4" height="19.1"/>
	<polygon class="st0" points="371.3,298.7 385.6,272.7 446.7,320.1 436,335.9 	"/>
	<path class="st0" d="M108.2,210.5c-27.4,0-49.6,22.2-49.6,49.6v16.4h-0.1v19.5c0,26.6-20.9,48.2-47.2,49.5
		c9.1,9.7,21.9,15.8,36.2,15.8c27.4,0,49.6-22.2,49.6-49.6v-16.4h0.1v-19.5c0-26.6,20.9-48.2,47.2-49.5
		C135.4,216.6,122.5,210.5,108.2,210.5z"/>
	<path class="st2" d="M228.5,248c0,23.4-19,42.4-42.4,42.4h-24.6c-23.4,0-42.4-19-42.4-42.4l0,0c0-23.4,19-42.4,42.4-42.4h24.6
		C209.5,205.6,228.5,224.6,228.5,248L228.5,248z"/>
	<path class="st2" d="M339.6,247.6c0,23.4,20.7,42.9-2.7,42.9h-24.6c-23.4,0-42.4-19-42.4-42.4l0,0c0-23.4,19-42.4,42.4-42.4H337
		c23.4,0,22.2,14.3,22.2,37.7L339.6,247.6z"/>
	<polygon class="st2" points="324.7,309.8 176.4,292.5 191.9,205.6 308.6,205.6 	"/>
	<polygon class="st3" points="191.3,446.2 169.6,446.2 134.3,317.9 172,317.9 	"/>
	<polygon class="st3" points="344.7,446.2 325.6,446.2 319.1,323.3 351.2,323.3 	"/>
	<path class="st1" d="M403.4,394.5l4-5.9c4.5-6.7,2.7-15.7-3.9-20.2c-6.7-4.5-15.7-2.7-20.2,3.9l-4,5.9L403.4,394.5z"/>
	<polygon class="st2" points="367,256.1 309.8,213.7 391.8,114.2 432.9,137 	"/>
	<path class="st0" d="M195,457v-7.2c0-8-6.5-14.5-14.5-14.5c-8,0-14.5,6.5-14.5,14.5v7.2H195z"/>
	<path class="st0" d="M349.7,457v-7.2c0-8-6.5-14.5-14.5-14.5c-8,0-14.5,6.5-14.5,14.5v7.2H349.7z"/>
	<path class="st2" d="M357.1,319l47.2-126.7l-78.7,28.2c0,0,5.1,68.2,3.1,70.3C326.6,292.8,357.1,319,357.1,319z"/>
	<g>
		<path class="st2" d="M461.1,119.4c-7.1,4.4-16.3,2.2-20.7-4.9l0,0c-4.4-7.1-2.2-16.3,4.9-20.7c0,0,38.6-15.9,43-8.8l0,0
			C492.7,92.1,461.1,119.4,461.1,119.4z"/>
		<path class="st2" d="M384.7,119.4c7.1,4.4,16.3,2.2,20.7-4.9l0,0c4.4-7.1,2.2-16.3-4.9-20.7c0,0-38.6-15.9-43-8.8l0,0
			C353.1,92.1,384.7,119.4,384.7,119.4z"/>
		<path class="st2" d="M460.1,132c0,21.5-17.4,38.9-38.9,38.9l0,0c-21.5,0-38.9-17.4-38.9-38.9v-9.8c0-21.5,17.4-38.9,38.9-38.9l0,0
			c21.5,0,38.9,17.4,38.9,38.9V132z"/>
		<path class="st4" d="M442.1,176.6c0,11.5-9.3,20.9-20.9,20.9l0,0c-11.5,0-20.9-9.3-20.9-20.9v-68.9c0-11.5,9.3-20.9,20.9-20.9l0,0
			c11.5,0,20.9,9.3,20.9,20.9V176.6z"/>
		<path class="st5" d="M451.8,196.8c0,13.1-10.6,23.7-23.7,23.7h-13.8c-13.1,0-23.7-10.6-23.7-23.7l0,0c0-13.1,10.6-23.7,23.7-23.7
			h13.8C441.2,173.1,451.8,183.7,451.8,196.8L451.8,196.8z"/>
		<g class="st6">
			<path class="st7" d="M440.4,191.4c0,8.2-6.6,14.9-14.9,14.9h-8.6c-8.2,0-14.9-6.7-14.9-14.9l0,0c0-8.2,6.6-14.9,14.9-14.9h8.6
				C433.8,176.6,440.4,183.2,440.4,191.4L440.4,191.4z"/>
		</g>
		<g>
			<path class="st1" d="M410,194.1c0,3-2.5,5.5-5.5,5.5l0,0c-3,0-5.5-2.5-5.5-5.5v-1.8c0-3,2.5-5.5,5.5-5.5l0,0c3,0,5.5,2.5,5.5,5.5
				V194.1z"/>
			<path class="st1" d="M445.3,194.1c0,3-2.5,5.5-5.5,5.5l0,0c-3,0-5.5-2.5-5.5-5.5v-1.8c0-3,2.5-5.5,5.5-5.5l0,0
				c3,0,5.5,2.5,5.5,5.5V194.1z"/>
		</g>
		<g>
			<path class="st8" d="M414.5,129.1c0.1,9.8-7.8,17.8-17.6,17.9c-9.8,0.1-17.8-7.8-17.9-17.6c-0.1-9.8,7.8-17.8,17.6-17.9
				C406.3,111.5,414.4,119.3,414.5,129.1z"/>
			<path class="st1" d="M402.5,129.3c0,3.2-2.6,5.8-5.8,5.8c-3.2,0-5.8-2.6-5.8-5.8c0-3.2,2.6-5.8,5.8-5.8
				C399.9,123.5,402.5,126.1,402.5,129.3z"/>
			<path class="st8" d="M463.5,129.1c0.1,9.8-7.7,17.8-17.6,17.9c-9.8,0.1-17.8-7.8-17.9-17.6c-0.1-9.8,7.8-17.8,17.6-17.9
				C455.4,111.5,463.4,119.3,463.5,129.1z"/>
			<path class="st1" d="M451.5,129.3c0,3.2-2.6,5.8-5.8,5.8c-3.2,0-5.8-2.6-5.8-5.8c0-3.2,2.6-5.8,5.8-5.8
				C448.9,123.5,451.5,126.1,451.5,129.3z"/>
		</g>
	</g>
	<path class="st3" d="M354.8,379.7c0,10.9-8.8,19.7-19.7,19.7c-10.9,0-19.7-8.8-19.7-19.7c0-10.9,8.8-19.7,19.7-19.7
		C346,360.1,354.8,368.9,354.8,379.7z"/>
	<circle class="st0" cx="429.1" cy="323.3" r="19.7"/>
	<circle class="st3" cx="166" cy="379.7" r="19.7"/>
	<polygon class="st0" points="432.3,90.9 440,57.5 400.4,57.6 407.6,90.9 	"/>
	<path class="st2" d="M191.9,297.5c0,20.1-16.3,36.4-36.4,36.4l0,0c-20.1,0-36.4-16.3-36.4-36.4V259c0-20.1,16.3-36.4,36.4-36.4l0,0
		c20.1,0,36.4,16.3,36.4,36.4V297.5z"/>
	<path class="st2" d="M359.2,309.2c0,13.3-10.7,24-24,24l0,0c-13.3,0-24-10.7-24-24v-26.1c0-13.3,10.7-24,24-24l0,0
		c13.3,0,24,10.7,24,24V309.2z"/>
</g>
</svg>
