<?xml version="1.0" encoding="utf-8"?>
<!-- Generator: Adobe Illustrator 21.1.0, SVG Export Plug-In . SVG Version: 6.00 Build 0)  -->
<svg version="1.1" id="Capa_1" xmlns="http://www.w3.org/2000/svg" xmlns:xlink="http://www.w3.org/1999/xlink" x="0px" y="0px"
	 viewBox="0 0 500 500" style="enable-background:new 0 0 500 500;" xml:space="preserve">
<style type="text/css">
	.st0{opacity:0.1;}
	.st1{fill:#221E1F;}
	.st2{fill:#FFFFFF;}
	.st3{fill:#C5A081;}
	.st4{fill:#E1A84A;}
	.st5{opacity:0.2;fill:#221E1F;}
	.st6{fill:#424242;}
	.st7{opacity:0.2;}
	.st8{fill:#DA989C;}
	.st9{fill:#AD8C71;}
</style>
<g>
	<g class="st0">
		<ellipse class="st1" cx="253.8" cy="468.5" rx="137" ry="23.5"/>
	</g>
	<path class="st2" d="M351.8,386c0,0,23.2,6.3,30.8-3.6c7.6-9.8-10.2-41.6,0.1-65.8c10.3-24.1,36.2-15.2,34.4,0
		c-1.8,15.2-24.2,3.3-22.5,25.9c1.8,22.6,16.1,44.9-10.4,58.7c-25.7,13.3-46.3,1.2-46.3,1.2L351.8,386z"/>
	<path class="st3" d="M386,346.9c3-7,7.5-18,2.1-24.1c-1.6-1.8-3.7-3.5-5.9-4.6c-8.3,22.2,5.6,50.2,1.7,61.8
		c1.3,3.2,2.1,5.2,2.1,5.2s8.3-7.1,5.2-17.1C388,358,383,353.9,386,346.9z"/>
	<path class="st4" d="M388,385.1c0.6-2.7-1.2-5.9-3.5-8.7c-0.2,2.4-0.7,4.4-1.9,5.9c-7.6,9.8-30.8,3.6-30.8,3.6l-1,1.2v10.9
		c0,0,5.4,4.5,11.4,2.4c6-2,5.4-6,11.4-5C379.6,396.5,386.7,391.5,388,385.1z"/>
	<path class="st4" d="M306.7,440.1c0,0,40.6,10.2,40.3,22.2c-0.3,12-70.4-7.3-70.4-7.3L306.7,440.1z"/>
	<path class="st2" d="M336.4,451c1.1,2.3,1.7,5.1-1.2,7.2c-5.4,3.8-35.9,2.4-36,2.4c20.5,4.6,47.7,9.2,47.9,1.8
		C347.2,458.2,342.5,454.3,336.4,451z"/>
	<path class="st5" d="M347.1,462.3c0-0.4,0-0.9-0.1-1.3c-8.9,3.2-22.7-0.9-23.8-5.6c-0.8-3.8,3.3-6.7,5.6-8c-5-2.1-10.1-3.8-14.1-5
		c-3.4-0.5-7.2-0.8-11-0.7l-27,13.4C276.6,455,346.8,474.3,347.1,462.3z"/>
	<path class="st4" d="M201,444.4c0,0-39.2,4-36.9,18.4c2.3,14.4,62.9-3.4,62.9-3.4L201,444.4z"/>
	<path class="st2" d="M212.4,463.3c-0.1,0-26,1.4-33.1-3.1c-4.2-2.7-6.2-6-7-8.3c-5.2,2.7-8.8,6.3-8.1,11
		C165.7,472.7,194.3,467.6,212.4,463.3z"/>
	<path class="st5" d="M227,459.5l-26-15.1c0,0-6.2,0.6-13.5,2.3c3.7,3.1,9.7,8.4,10.5,10.9c1,3.2-23.9,7.2-34,3.9
		c0,0.4,0,0.9,0.1,1.3C166.5,477.3,227,459.5,227,459.5z"/>
	<path class="st2" d="M341.5,304.1c0,0,32.2,66.6,0,122.3c-32.2,55.6-138.1,49.6-159.6,3.4c-21.5-46.3-12.7-107.3-12.7-107.3
		L341.5,304.1z"/>
	<path class="st3" d="M314.3,307c-0.6,1.4-1.1,3-1.7,4.6c0,0-14.7,35.9-5,53.6c9.7,17.7,23.8,5.2,37.9,23.8c2.9,3.8,5.6,5.2,8.1,4.8
		c8.9-46.1-12.1-89.6-12.1-89.6L314.3,307z"/>
	<path class="st4" d="M174.5,409.4c36.1-11.7,26.2-79.5,26.2-79.5s-6.8-5-16-9.1l-15.5,1.6C169.1,322.4,162.7,367.4,174.5,409.4z"/>
	<path class="st2" d="M171.8,58.3c0,0,26.8-14.7,66.4-15.4c39.6-0.7,56.3,15.4,56.3,15.4S343.4,6.7,356.8,14
		c13.4,7.4,5.4,103.2,5.4,103.2l13.4,32.2c0,0,37.5,38.6,28.2,92c-9.4,53.4-84.5,90.3-148.2,96.3c-63.7,6-142.8-15.4-170.3-64.4
		s20.8-112.6,20.8-112.6l10.1-36.9c0,0-15.4-81.1-4-96.5S171.8,58.3,171.8,58.3z"/>
	<path class="st3" d="M112.1,27.5c-11.4,15.4,4,96.5,4,96.5l-10.1,36.9c0,0-11.9,15.7-20.5,37.6c28.6,24.5,84.8,35.2,115.4,11.4
		c31.4-24.4,23.3-130.1,19.6-165.7c-29.7,3.7-48.8,14.2-48.8,14.2S123.5,12,112.1,27.5z"/>
	<g>
		<circle class="st6" cx="183.8" cy="173.7" r="17.2"/>
		<circle class="st2" cx="177.7" cy="167.7" r="6.5"/>
	</g>
	<g class="st7">
		<path class="st1" d="M385.6,257c-19.2,23.7-80.9,49.4-106.6,57.1c-25.7,7.8-76.2,19.1-136.1-12.4c-40.3-21.2-58.3-51.4-65.8-68.9
			c-1.1,13.6,0.8,27.7,8.2,40.7c27.5,48.9,106.6,70.4,170.3,64.4c63.7-6,138.8-42.9,148.2-96.3c1.1-6.4,1.6-12.6,1.5-18.5
			C400.9,233.4,394.5,246,385.6,257z"/>
	</g>
	<path class="st8" d="M229,275.5c0,0,4.9,37.8,25,36c20.1-1.8,13.6-41.3,13.6-41.3L248.8,257C248.8,257,239,273.3,229,275.5z"/>
	<path class="st9" d="M322,333.2c0,0-33.9-29.4-56.6-31.5s-39.9,12.7-35.5,27.1c4.4,14.4,24.7-2.3,31.8-3.7
		c7.1-1.3,33.3,13.7,42,22.1c8.7,8.4,20.8,16.8,27.8,6C338.4,342.5,322,333.2,322,333.2z"/>
	<g>
		<path class="st6" d="M243.4,229.9c1.3,9.2,2.5,18.4,3.8,27.5c0.3,2.1,3.5,1.2,3.2-0.9c-1.3-9.2-2.5-18.4-3.8-27.5
			C246.3,226.8,243.1,227.7,243.4,229.9L243.4,229.9z"/>
	</g>
	<path class="st8" d="M241,212.9c0,0,17.9-2.9,17.4,4.5c-0.4,7.4-7.2,14.3-13,14.7c-5.8,0.4-18.8-7.6-18.5-12.1
		S237.3,213.3,241,212.9z"/>
	<path class="st4" d="M375.6,149.5l-13.4-32.2c0,0,8-95.9-5.4-103.2c-13.4-7.4-62.3,44.2-62.3,44.2s-16.8-16.1-56.3-15.4
		c-6.2,0.1-12.1,0.6-17.6,1.2l0,0c0,0,19.5,140.2,55.1,159c29.1,15.3,87.4-7.8,115.7-31.2C383.6,157.7,375.6,149.5,375.6,149.5z"/>
	<g>
		<path class="st6" d="M217.3,274.4c13.3,8.7,29.2-6.3,33.1-18.6c-0.9,0.2-1.9,0.5-2.8,0.7c8.2,8.9,23.5,23.7,32.9,7.7
			c1.1-1.9-1.8-3.6-2.9-1.7c-7.7,13.1-21.2-1.4-27.6-8.4c-0.9-1-2.4-0.4-2.8,0.7c-3.2,10.2-17.6,23.5-28.1,16.6
			C217.2,270.4,215.5,273.3,217.3,274.4L217.3,274.4z"/>
	</g>
	<path class="st6" d="M321.9,154.5c0,0-20.1-8.5-35.5,1.5c-19.9,13-14.6,24.6-10.8,26c3.8,1.3-0.9-10.5,12.1-20.8
		C300.8,150.8,321.9,154.5,321.9,154.5z"/>
	<path class="st8" d="M123.7,104.8c0,0,8.5-13,18.8-22.8c10.3-9.8,17.4-13.9,17.4-13.9s-41.6-40.7-43.8-30.4
		C113.9,48,123.7,104.8,123.7,104.8z"/>
	<path class="st8" d="M309.6,67.5c0,0,13.3,4.6,24,14.6c10.7,10.1,14,18.4,14,18.4s10.3-56.2,4.2-66.6
		C345.8,23.5,309.6,67.5,309.6,67.5z"/>
	<path class="st6" d="M179.9,400.2c-3.5-1.7-6.2-2.7-8.4-3.3c2.2,11.1,5.5,22.3,10.4,32.8c0.3,0.6,0.6,1.1,0.9,1.6
		C186.9,423.6,190.7,405.6,179.9,400.2z"/>
	<path class="st6" d="M348.1,383.4c-7-6-17.1-3-18.1,7c-1,10.1,1,15.1-3.7,21.1c-3.9,5.1,2.3,19.7,13.2,17.7c0.6-1,1.3-1.9,1.9-2.9
		c6.4-11,10.2-22.5,12.3-33.8C352.6,389.2,350.9,385.8,348.1,383.4z"/>
	<path class="st2" d="M243.7,325.1c-4.1-0.6-10.3-3.5-11.1-11c-3.2,4.4-4.4,9.6-2.8,14.7c4.4,14.4,24.7-2.3,31.8-3.7
		c5.2-1,20.3,6.7,31.5,14.1c0,0,0,0,0,0s-17.4-15.3-27.6-17C255.3,320.6,248.4,325.8,243.7,325.1z"/>
	<g class="st7">
		<path class="st1" d="M350.4,329.9c0,0.5-0.1,63.7-27.3,93.7c-27.3,30.2-83.2,27-108.2,15.8c-14.8-6.6-32.9-30.2-44.9-50.5
			c2.1,13.6,5.8,27.7,11.8,40.7c21.5,46.3,127.4,52.3,159.6-3.4C361.1,392.4,356.8,354.4,350.4,329.9z"/>
	</g>
	<path class="st9" d="M227,407.2c0,0,8.2,50,7.8,59c-0.3,9-15.4,18.4-20.4,13.1c-5-5.4,1-16.1,0-25.1c-1-9.1-11.7-45.6-8.7-57.7
		C208.7,384.4,223.6,385.7,227,407.2z"/>
	<path class="st2" d="M231.9,456.5c0,4.4-1.6,14.6-9.8,14.8c-4.9,0.1-7.7-1.6-9.2-3.1c-0.8,4.5-1,8.5,1.5,11.2
		c5,5.4,20.1-4,20.4-13.1c0.1-3.8-1.3-15.1-2.9-26.7C231.9,445.8,231.9,453.9,231.9,456.5z"/>
	<g class="st7">
		<path class="st2" d="M201,63.7c0,0-1.5,0.8-4,2.3c-1.3,0.7-2.8,1.7-4.6,2.7c-1.7,1.1-3.7,2.3-5.8,3.7c-2.1,1.4-4.3,2.9-6.7,4.5
			c-2.4,1.6-4.7,3.5-7.3,5.3c-2.5,1.9-4.9,3.9-7.5,6c-2.4,2.2-5,4.2-7.3,6.6l-3.6,3.4c-1.2,1.1-2.2,2.4-3.4,3.5
			c-1.1,1.2-2.2,2.3-3.3,3.5c-1,1.2-2,2.4-3,3.6c-1,1.2-2,2.4-2.9,3.5c-0.9,1.2-1.7,2.4-2.6,3.5c-1.7,2.3-3.3,4.4-4.5,6.6
			c-1.3,2.1-2.6,4-3.6,5.8c-1,1.8-1.8,3.4-2.5,4.7c-1.4,2.6-2.3,4.1-2.3,4.1s0.4-1.6,1.3-4.5c0.4-1.4,1-3.1,1.6-5.1
			c0.8-1.9,1.7-4.1,2.8-6.4c0.6-1.2,1-2.4,1.7-3.6c0.7-1.2,1.4-2.4,2.2-3.7c0.8-1.3,1.5-2.6,2.3-3.9c0.8-1.3,1.8-2.5,2.8-3.8
			c1-1.3,1.9-2.6,2.9-3.9c1.1-1.3,2.2-2.5,3.3-3.8c1.1-1.2,2.2-2.6,3.4-3.8l3.7-3.6c2.4-2.4,5.2-4.5,7.7-6.7c2.6-2.1,5.4-4,8-5.8
			c2.7-1.7,5.3-3.4,7.9-4.8c1.3-0.7,2.5-1.4,3.7-2.1c1.2-0.6,2.4-1.2,3.6-1.7c2.3-1.2,4.5-2,6.4-2.8c1.9-0.7,3.6-1.4,5-1.8
			C199.3,64,201,63.7,201,63.7z"/>
	</g>
	<g class="st7">
		<path class="st2" d="M248.6,309.2c0,0,0.6-0.3,1.7-0.8c1.1-0.4,2.6-1.1,4.6-1.5c2-0.5,4.3-0.9,6.8-1.1c1.3,0,2.6-0.2,3.9-0.1
			c1.3,0,2.7,0.1,4,0.3c1.4,0.1,2.7,0.5,4,0.8c1.3,0.2,2.5,0.8,3.7,1.2c1.2,0.3,2.3,1,3.3,1.5c1.1,0.5,2,1.1,2.9,1.6
			c0.9,0.5,1.7,1,2.3,1.5c0.6,0.5,1.2,1,1.6,1.3c0.9,0.7,1.4,1.2,1.4,1.2s-0.6-0.3-1.6-0.9c-0.5-0.3-1.1-0.6-1.8-1
			c-0.7-0.4-1.6-0.7-2.4-1.1c-0.9-0.4-1.8-0.9-2.9-1.2c-1.1-0.3-2.1-0.8-3.3-1.1c-1.2-0.3-2.4-0.7-3.6-0.9c-1.2-0.3-2.5-0.6-3.8-0.7
			c-2.6-0.4-5.2-0.5-7.6-0.5c-2.4,0.1-4.7,0.1-6.7,0.5C251.2,308.5,248.6,309.2,248.6,309.2z"/>
	</g>
	<g class="st7">
		<path class="st2" d="M209.3,410.9c0,0,0.8,2.4,1.8,6.1c0.5,1.9,1.1,4,1.6,6.3c0.5,2.3,1,4.8,1.5,7.3c0.5,2.5,0.9,5,1.3,7.4
			c0.4,2.4,0.6,4.6,0.8,6.5c0.2,1.9,0.3,3.5,0.3,4.6c0,1.1,0,1.8,0,1.8s-0.6-2.5-1.5-6.2c-0.4-1.9-0.9-4-1.5-6.4
			c-0.5-2.3-1-4.8-1.5-7.3c-0.5-2.5-0.9-5-1.3-7.4c-0.4-2.4-0.7-4.6-1-6.5C209.5,413.5,209.3,410.9,209.3,410.9z"/>
	</g>
</g>
</svg>
