<?xml version="1.0" encoding="utf-8"?>
<!-- Generator: Adobe Illustrator 21.1.0, SVG Export Plug-In . SVG Version: 6.00 Build 0)  -->
<svg version="1.1" id="Capa_1" xmlns="http://www.w3.org/2000/svg" xmlns:xlink="http://www.w3.org/1999/xlink" x="0px" y="0px"
	 viewBox="0 0 500 500" style="enable-background:new 0 0 500 500;" xml:space="preserve">
<style type="text/css">
	.st0{fill:#CB6454;}
	.st1{fill:#644F44;}
	.st2{fill:#DFA892;}
	.st3{fill:#D78E80;}
	.st4{fill:#DDA29A;}
	.st5{opacity:0.4;fill:#CB6454;}
	.st6{fill:#E8C3B1;}
	.st7{fill:#FFFFFF;}
	.st8{fill:#414041;}
</style>
<g>
	<g>
		<path class="st0" d="M116.4,263.2c0-8.3-6.7-14.9-14.9-14.9c-8.3,0-14.9,6.7-14.9,14.9v108.3h29.9V263.2z"/>
		<path class="st1" d="M94.9,388.7c2.2-2.1,3.8-8.1,6.5-8.1c3,0,3.4,5.8,5.7,8.1c4.1,4.2,9.2,0.6,9.2-4.7v-12.6H86.5V384
			C86.5,389.5,90.4,393,94.9,388.7z"/>
	</g>
	<g>
		<path class="st0" d="M366.9,256.2c0-8.3-6.7-14.9-14.9-14.9c-8.2,0-14.9,6.7-14.9,14.9v108.3h29.9V256.2z"/>
		<path class="st1" d="M345.4,381.8c2.2-2.1,3.8-8.1,6.5-8.1c3,0,3.4,5.8,5.7,8.1c4.1,4.2,9.2,0.6,9.2-4.7v-12.6H337v12.6
			C337,382.6,340.9,386.1,345.4,381.8z"/>
	</g>
	<g>
		<path class="st0" d="M155.8,256.2c0-8.3-6.7-14.9-14.9-14.9c-8.3,0-14.9,6.7-14.9,14.9v108.3h29.9V256.2z"/>
		<path class="st1" d="M134.3,381.8c2.2-2.1,3.8-8.1,6.5-8.1c3,0,3.4,5.8,5.7,8.1c4.1,4.2,9.2,0.6,9.2-4.7v-12.6h-29.9v12.6
			C125.9,382.6,129.8,386.1,134.3,381.8z"/>
	</g>
	<rect x="122.5" y="280.1" class="st2" width="173.4" height="32.8"/>
	<g>
		<path class="st2" d="M27.1,201.3c-4,0-7.8-1.9-10.1-5.1c-2.6-3.8-2.6-8.9,0.1-13.8c2.2-4,4.9-7.1,8.1-9.5c-3.5-4.3-8-8-11.6-10.5
			c-2-1.4-2.5-4.3-1.1-6.3c1.4-2,4.3-2.5,6.3-1.1c4.6,3.2,10.4,7.9,14.7,13.9c0.4-0.1,0.9-0.2,1.3-0.3c18.1-4.1,38.3,9.8,40.6,11.4
			c2,1.4,2.5,4.3,1.1,6.3c-1.4,2-4.3,2.5-6.3,1.1c-6.3-4.4-20.7-12-32.1-10.2c1.8,4.9,2.2,10.3,0.3,16c-1.5,4.4-5.1,7.4-9.5,8.1
			C28.2,201.3,27.7,201.3,27.1,201.3z M29.7,180.9c-1.8,1.5-3.4,3.5-4.7,5.9c-0.6,1.1-1.4,3-0.6,4.3c0.6,0.9,1.9,1.4,3.1,1.2
			c1.1-0.2,1.8-0.8,2.2-2C30.9,187,30.7,183.9,29.7,180.9z"/>
	</g>
	<path class="st2" d="M174.6,320c0,3.2-2.6,5.7-5.7,5.7l0,0c-3.2,0-5.7-2.6-5.7-5.7v-14.3c0-3.2,2.6-5.7,5.7-5.7l0,0
		c3.1,0,5.7,2.6,5.7,5.7V320z"/>
	<path class="st2" d="M215.2,320c0,3.2-2.6,5.7-5.7,5.7l0,0c-3.1,0-5.7-2.6-5.7-5.7v-14.3c0-3.2,2.6-5.7,5.7-5.7l0,0
		c3.2,0,5.7,2.6,5.7,5.7V320z"/>
	<path class="st2" d="M257.8,320c0,3.2-2.6,5.7-5.7,5.7l0,0c-3.1,0-5.7-2.6-5.7-5.7v-14.3c0-3.2,2.6-5.7,5.7-5.7l0,0
		c3.2,0,5.7,2.6,5.7,5.7V320z"/>
	<g>
		<path class="st0" d="M327.4,263.2c0-8.3-6.7-14.9-14.9-14.9c-8.2,0-14.9,6.7-14.9,14.9v108.3h29.9V263.2z"/>
		<path class="st1" d="M305.9,388.7c2.2-2.1,3.8-8.1,6.5-8.1c3,0,3.4,5.8,5.7,8.1c4.1,4.2,9.2,0.6,9.2-4.7v-12.6h-29.9V384
			C297.5,389.5,301.4,393,305.9,388.7z"/>
	</g>
	<path class="st3" d="M419.3,240.2c0,62.1-32.2,107.3-71.9,107.3l-233.6,0c-39.7,0-71.9-45.3-71.9-107.3l0-39.2
		c0-62.1,33.8-112.4,122.5-112.4l132.4,0c86,0,122.5,50.3,122.5,112.4L419.3,240.2z"/>
	<path class="st3" d="M343.3,310.7c0,17.3-14.1,31.4-31.4,31.4l0,0c-17.3,0-31.4-14.1-31.4-31.4v-54.5c0-17.3,14.1-31.4,31.4-31.4
		l0,0c17.3,0,31.4,14.1,31.4,31.4V310.7z"/>
	<path class="st3" d="M144.6,298.3c0,24.2-19.6,43.8-43.8,43.8l0,0c-24.2,0-43.8-19.6-43.8-43.8v-76.1c0-24.2,19.6-43.8,43.8-43.8
		l0,0c24.2,0,43.8,19.6,43.8,43.8V298.3z"/>
	<path class="st4" d="M344.7,204.4c0,41.7-21.6,75.5-48.3,75.5l-182.3,0c-26.7,0-48.3-33.8-48.3-75.5l0-26.3
		c0-41.7,22.7-75.5,82.3-75.5l114.2,0c57.8,0,82.3,33.8,82.3,75.5L344.7,204.4z"/>
	<path class="st0" d="M419.3,240.2V201c0-5.3-0.3-10.5-0.8-15.7c-2.5,0.7-4.9,1.7-7.1,3.2c-11.3-9.3-25.7-14.8-41.5-14.8
		c-15.6,0-30,5.5-41.3,14.7c-6.9-4.4-15.8-5.3-23.7-1.5L248,214.5c-9.2,4.5,6.6,13.3,34.2,15.8c-0.4,2.9-0.6,5.8-0.6,8.8v20.7
		c0,62.7,48.1,86.6,80.7,90.3C394.9,339.3,419.3,294.2,419.3,240.2z"/>
	<g>
		<path class="st3" d="M336.3,175.6c5.1,10.6,1.7,26.4-9.8,28.4c-17.2,3-79-8.9-68.4-14l49.9-24.2
			C318.4,160.6,331.1,165,336.3,175.6L336.3,175.6z"/>
		<path class="st4" d="M445.2,257c0,31.7-33.7,57.4-75.3,57.4l0,0c-41.6,0-75.3-25.7-75.3-57.4l0-40.3c0-31.7,33.7-57.4,75.3-57.4
			l0,0c41.6,0,75.3,25.7,75.3,57.4L445.2,257z"/>
		<path class="st4" d="M406.6,173c-5.1,10.6-1.7,26.4,9.8,28.4c17.2,3,79-8.9,68.5-14L435,163.2C424.4,158.1,411.7,162.5,406.6,173
			L406.6,173z"/>
		<path class="st5" d="M411,270.5c0-14.2-11.5-25.6-25.6-25.6h-30.6c-14.2,0-25.7,11.5-25.7,25.6l0,0c0,14.2,11.5,25.6,25.7,25.6
			h30.6C399.5,296.2,411,284.7,411,270.5L411,270.5z"/>
		<path class="st6" d="M411,261.3c0-14.2-11.5-25.6-25.6-25.6h-30.6c-14.2,0-25.7,11.5-25.7,25.6l0,0c0,14.2,11.5,25.6,25.7,25.6
			h30.6C399.5,286.9,411,275.4,411,261.3L411,261.3z"/>
		<path class="st1" d="M366.3,262.3c0,3.2-2.6,5.7-5.7,5.7l0,0c-3.2,0-5.7-2.6-5.7-5.7v-2.2c0-3.2,2.6-5.7,5.7-5.7l0,0
			c3.2,0,5.7,2.6,5.7,5.7V262.3z"/>
		<path class="st1" d="M386,262.3c0,3.2-2.6,5.7-5.7,5.7l0,0c-3.1,0-5.7-2.6-5.7-5.7v-2.2c0-3.2,2.6-5.7,5.7-5.7l0,0
			c3.2,0,5.7,2.6,5.7,5.7V262.3z"/>
		<path class="st7" d="M363.3,203.9c0.1,9.6-7.6,17.5-17.2,17.6c-9.6,0.1-17.5-7.6-17.6-17.2c-0.1-9.6,7.6-17.5,17.2-17.6
			C355.3,186.6,363.2,194.3,363.3,203.9z"/>
		<path class="st8" d="M351.6,204.1c0,3.1-2.5,5.7-5.7,5.7c-3.1,0-5.7-2.5-5.7-5.7c0-3.1,2.5-5.7,5.7-5.7
			C349.1,198.4,351.6,200.9,351.6,204.1z"/>
		<path class="st7" d="M411.3,203.9c0.1,9.6-7.6,17.5-17.2,17.6c-9.6,0.1-17.5-7.6-17.6-17.2c-0.1-9.6,7.6-17.5,17.2-17.6
			C403.3,186.6,411.2,194.3,411.3,203.9z"/>
		<circle class="st8" cx="393.9" cy="204.1" r="5.7"/>
	</g>
	<path class="st0" d="M113.8,352.6l233.6,0c9.1,0,17.8-2.7,25.8-7.5c-15.1-6.6-30.5-23.9-39.4-23.9c-24,0-125.3,0-192.4,0
		s-99.6-46.8-99.6-81.1C41.9,302.2,74.1,352.6,113.8,352.6z"/>
</g>
<path class="st0" d="M234.7,343.6c8.9-9.7-4.2-22.4,21.5-22.4s39.2-3.8,31.2-26.6c-8-22.8,21.9,13.1,25.3,17.7
	c3.4,4.6,16.9,13.9-0.8,18.1c-17.7,4.2-41.3,12.2-47.2,13.1C258.7,344.4,234.7,343.6,234.7,343.6z"/>
</svg>
